HIERARCHY
ROOT Hips
{
	OFFSET	0.000000	0.000000	0.000000
	CHANNELS 6 Xposition Yposition Zposition Zrotation Xrotation Yrotation
	JOINT LeftHip
	{
		OFFSET	12.830505	-7.049846	-1.643436
		CHANNELS 3 Zrotation Xrotation Yrotation
		JOINT LeftKnee
		{
			OFFSET	0.620834	-39.957502	-1.919341
			CHANNELS 3 Zrotation Xrotation Yrotation
			JOINT LeftAnkle
			{
				OFFSET	-0.413890	-44.704761	-3.870325
				CHANNELS 3 Zrotation Xrotation Yrotation
				JOINT LeftAnkleEnd
				{
					OFFSET	0.164738	-8.918194	-6.555130
					CHANNELS 3 Zrotation Xrotation Yrotation
					End Site
					{
						OFFSET	-0.604053	0.000000	21.044330
					}
				}
			}
		}
	}
	JOINT RightHip
	{
		OFFSET	-12.830505	-7.049846	-1.643436
		CHANNELS 3 Zrotation Xrotation Yrotation
		JOINT RightKnee
		{
			OFFSET	-0.620834	-39.957502	-1.919341
			CHANNELS 3 Zrotation Xrotation Yrotation
			JOINT RightAnkle
			{
				OFFSET	0.413890	-44.704761	-3.870325
				CHANNELS 3 Zrotation Xrotation Yrotation
				JOINT RightAnkleEnd
				{
					OFFSET	-0.164738	-8.918194	-6.555130
					CHANNELS 3 Zrotation Xrotation Yrotation
					End Site
					{
						OFFSET	0.604053	0.000000	21.044330
					}
				}
			}
		}
	}
	JOINT Chest
	{
		OFFSET	0.000000	12.498171	1.820647
		CHANNELS 3 Zrotation Xrotation Yrotation
		JOINT Chest1
		{
			OFFSET	0.000000	7.620000	0.000000
			CHANNELS 3 Zrotation Xrotation Yrotation
			JOINT LeftCollar
			{
				OFFSET	9.167800	29.136339	-5.551221
				CHANNELS 3 Zrotation Xrotation Yrotation
				JOINT LeftShoulder
				{
					OFFSET	12.133453	-3.880866	1.461963
					CHANNELS 3 Zrotation Xrotation Yrotation
					JOINT LeftElbow
					{
						OFFSET	2.507115	-31.664910	-1.069404
						CHANNELS 3 Zrotation Xrotation Yrotation
						JOINT LeftWrist
						{
							OFFSET	4.116172	-24.512624	5.009439
							CHANNELS 3 Zrotation Xrotation Yrotation
							End Site
							{
								OFFSET	-0.213136	-10.931856	2.182134
							}
						}
					}
				}
			}
			JOINT RightCollar
			{
				OFFSET	-9.167800	29.136339	-5.551221
				CHANNELS 3 Zrotation Xrotation Yrotation
				JOINT RightShoulder
				{
					OFFSET	-12.133453	-3.880866	1.461963
					CHANNELS 3 Zrotation Xrotation Yrotation
					JOINT RightElbow
					{
						OFFSET	-2.507115	-31.664910	-1.069404
						CHANNELS 3 Zrotation Xrotation Yrotation
						JOINT RightWrist
						{
							OFFSET	-4.116172	-24.512624	5.009439
							CHANNELS 3 Zrotation Xrotation Yrotation
							End Site
							{
								OFFSET	0.213136	-10.931856	2.182134
							}
						}
					}
				}
			}
			JOINT Neck
			{
				OFFSET	0.000000	32.926275	-3.635654
				CHANNELS 3 Zrotation Xrotation Yrotation
				JOINT Head
				{
					OFFSET	0.000000	12.481178	4.646143
					CHANNELS 3 Zrotation Xrotation Yrotation
					End Site
					{
						OFFSET	0.000000	17.715205	-2.222063
					}
				}
			}
		}
	}
}
MOTION
Frames:     19
Frame Time: 0.016667
0.988108	97.799911	-2.058006	-3.332125	5.331141	46.776726	13.867980	-28.111265	22.343735	5.378734	31.612528	-5.665020	-11.673580	-6.513026	-8.089585	0.	0.	0.	-20.678110	-26.858137	-19.508959	0.427812	33.145985	0.789948	7.421910	-7.642023	-6.469204	0.	0.	0.	-3.284183	-7.275011	-46.902252	-27.581402	18.042618	57.347984	17.625214	-4.388937	4.618976	-34.355881	-47.054794	-35.002048	-104.988205	-35.252033	-76.615387	-1.706398	-4.013881	-0.484386	-10.522413	-3.087052	0.790746	-39.058693	-13.185317	-44.031120	-27.472277	-124.088135	-37.719704	-17.423267	2.938079	14.162629	-3.608795	1.700099	-17.722954	20.393013	-9.801278	-13.102666	
0.921735	97.907424	-1.786693	-3.386011	5.197449	47.149586	13.934813	-27.748047	22.260643	5.435551	30.897017	-5.580263	-11.916419	-5.906199	-8.446525	0.	0.	0.	-20.439751	-26.470459	-19.745728	0.274374	32.972881	1.030416	7.361922	-7.742182	-6.751202	0.	0.	0.	-3.196127	-7.202277	-47.269569	-27.703726	17.242456	57.003208	17.703060	-4.104737	4.643403	-33.505604	-47.062370	-34.583599	-104.680954	-35.290184	-76.494057	-1.784185	-3.991785	-0.601067	-10.272232	-2.449268	1.179894	-39.410603	-12.270550	-43.365685	-31.302818	-125.532295	-42.569786	-19.586943	3.064120	12.196758	-3.320749	2.233463	-17.257036	20.774757	-9.762195	-12.886124	
1.034818	98.064265	-1.511236	-3.443274	5.171895	47.438530	13.841470	-27.281282	21.971779	5.285491	30.103748	-5.304302	-12.017744	-5.476261	-8.659171	0.	0.	0.	-20.296858	-26.214083	-19.914946	0.147181	32.728748	1.223740	7.347086	-7.756340	-6.987840	0.	0.	0.	-3.174668	-7.211047	-47.556530	-27.815123	16.371613	56.744709	18.103643	-3.671776	4.600392	-32.963387	-47.070499	-34.279423	-104.462219	-35.299198	-76.357071	-1.816687	-4.001519	-0.606463	-9.809069	-2.147808	1.506896	-39.858311	-11.416797	-42.948757	-37.562569	-128.374924	-49.520309	-21.562269	3.515806	9.346876	-2.799327	2.693007	-16.956949	21.024101	-9.669874	-12.726436	
0.875768	98.401211	-1.240931	-3.920718	5.535608	48.954498	13.009888	-27.537472	20.335354	5.348236	28.219091	-4.418427	-12.322603	-3.800346	-9.203119	0.	0.	0.	-19.760429	-25.089470	-20.039890	0.023355	30.925144	0.587513	7.428058	-7.464604	-7.566295	0.	0.	0.	-3.325918	-7.723499	-49.072258	-27.979179	15.457170	56.860897	17.779497	-3.112135	3.828087	-31.336153	-47.039795	-33.400005	-103.563301	-35.241917	-75.452423	-1.823994	-4.165568	-0.275108	-9.947241	-2.213250	1.371888	-43.649948	-7.827004	-40.147186	-36.821514	-129.620804	-50.744171	-23.174368	4.639643	8.636881	-2.399167	3.148357	-17.178432	21.630871	-9.296508	-11.697301	
0.634806	98.749523	-1.183746	-4.116128	5.683728	49.418873	12.495736	-27.197258	19.804180	5.521446	26.386763	-3.910133	-12.445092	-2.352600	-9.472686	0.	0.	0.	-19.253351	-24.278774	-19.324554	0.161326	29.406137	-0.378656	7.584804	-6.939857	-7.696973	0.	0.	0.	-3.374022	-7.941062	-49.535355	-28.422979	14.793083	57.427261	17.920694	-2.686260	2.984271	-30.372267	-47.312820	-32.924229	-102.734444	-35.133141	-74.496979	-1.714501	-4.402419	0.173948	-9.867782	-2.709754	0.938358	-49.047623	-5.900937	-35.766228	-34.764400	-127.076698	-45.816349	-23.790474	5.413194	12.088381	-1.995911	3.069398	-17.719595	21.998325	-8.693287	-11.772459	
0.356335	99.224000	-1.069667	-4.853366	6.177904	50.809372	11.639462	-27.382700	18.579056	5.612504	23.639965	-3.552517	-12.436854	-0.069036	-9.454045	0.	0.	0.	-19.103113	-23.732187	-19.651995	0.216891	27.293139	-1.932030	7.898885	-5.752000	-7.335902	0.	0.	0.	-3.483039	-8.740512	-50.914471	-28.769423	13.834363	59.275826	18.334177	-1.576592	0.468138	-29.193968	-48.734951	-32.204296	-101.336868	-34.854244	-73.092751	-1.714177	-4.659501	0.666508	-10.456205	-3.685128	0.045406	-55.831425	-3.498955	-34.068398	-35.958363	-121.863831	-44.502155	-21.397554	6.935062	18.239429	-1.648951	3.346071	-19.105036	22.352219	-8.061034	-11.747031	
0.356335	99.224000	-1.069667	-4.853366	6.177904	50.809372	11.639462	-27.382700	18.579056	5.612504	23.639965	-3.552517	-12.436854	-0.069036	-9.454045	0.	0.	0.	-19.103113	-23.732187	-19.651995	0.216891	27.293139	-1.932030	7.898885	-5.752000	-7.335902	0.	0.	0.	-3.483039	-8.740512	-50.914471	-28.941025	12.938589	60.952751	19.145304	-1.816960	-1.179837	-29.193968	-48.734951	-32.204296	-101.336868	-34.854244	-73.092751	-1.714177	-4.659501	0.666508	-11.273328	-4.451731	-0.629333	-59.815620	-2.099776	-34.012981	-52.893051	-111.277679	-57.695000	-20.325186	6.134293	11.111412	-1.515711	4.287620	-20.404139	23.316214	-8.424871	-11.896095	
-0.053160	99.951029	-1.186781	-5.337561	7.021444	51.879791	10.629354	-27.441961	16.678661	4.758552	20.714462	-1.931519	-12.085606	2.857931	-9.352993	0.	0.	0.	-18.639175	-22.975138	-18.138865	0.406638	23.927658	-3.734637	8.011185	-3.889807	-8.218315	0.	0.	0.	-4.014101	-9.574791	-51.999874	-29.440393	11.961849	62.654179	19.315977	-0.671508	-2.159539	-27.853220	-50.652187	-32.065193	-100.231071	-34.368900	-72.741096	-1.912850	-4.830327	-0.251553	-12.068570	-5.170001	-1.109645	-63.670887	-2.308802	-35.445251	84.567001	-75.290375	76.183182	-21.713821	6.751719	10.170178	-1.224160	5.071524	-21.261477	24.584379	-8.080580	-10.521930	
-0.415267	100.207215	-1.563025	-5.137536	7.466421	51.948067	10.179733	-27.150469	15.712729	4.010674	19.614548	-0.329264	-11.817413	4.350739	-9.703308	0.	0.	0.	-19.037703	-23.037062	-17.971859	0.403475	23.088390	-3.477571	7.972461	-3.053309	-8.837569	0.	0.	0.	-4.504047	-9.685820	-52.103359	-30.019405	11.087448	64.178780	19.923229	-0.689055	-2.700782	-27.909084	-51.424179	-32.559906	-99.597832	-34.072510	-72.496109	-1.907264	-4.924981	-0.590395	-12.285066	-6.245729	-0.670426	-69.325783	-4.367530	-36.742050	26.248644	-65.605843	13.754864	-19.941664	7.795855	8.846325	-0.809543	5.704607	-21.586617	25.333605	-8.122214	-10.899761	
-0.876781	100.434915	-1.792773	-4.789629	7.929758	51.722740	9.763145	-26.845547	15.111594	3.380412	18.863527	1.102091	-11.596685	5.727474	-10.149042	0.	0.	0.	-19.404032	-23.306261	-17.443943	0.398807	22.648066	-4.077010	7.921731	-2.326325	-8.657260	0.	0.	0.	-5.051153	-9.715884	-51.923954	-30.601055	10.511918	65.590622	20.133940	-1.112901	-2.856030	-28.393744	-51.932400	-33.600475	-98.795250	-33.842175	-71.650200	-1.989034	-5.064843	-0.315129	-12.379306	-8.038491	0.351239	-76.284264	-8.846534	-36.650421	6.114445	-39.132641	-9.954669	-13.366524	9.513010	6.389527	-0.864637	6.291160	-21.949392	26.028288	-8.147019	-11.046772	
-1.371932	100.579828	-1.947548	-4.392270	8.284302	51.397404	9.363657	-26.676968	15.008283	3.149837	18.569059	1.558852	-11.558155	6.797200	-10.313431	0.	0.	0.	-19.771837	-23.709148	-17.185434	0.351520	22.678682	-4.815185	7.817261	-1.815654	-7.962585	0.	0.	0.	-5.526279	-9.653370	-51.643734	-30.784834	10.112111	67.853195	19.883581	-1.657377	-3.719355	-29.053860	-52.354912	-35.378056	-98.167892	-34.051453	-70.711105	-2.160007	-5.216309	0.331128	-12.821353	-10.193574	1.131932	-83.958977	-13.033067	-37.137684	5.537197	-17.312439	-13.697801	-18.494638	19.057577	6.652563	-1.408116	7.207197	-23.057804	26.499121	-7.826071	-11.872184	
-1.798754	100.634166	-2.042787	-4.017430	8.513895	51.175949	8.947167	-26.753235	14.400491	3.042230	18.744576	1.751692	-11.728909	7.708253	-9.988862	0.	0.	0.	-20.210186	-24.109592	-17.473309	0.315682	23.102499	-5.097076	7.629332	-1.625665	-7.305784	0.	0.	0.	-5.906871	-9.524947	-51.460785	-31.085691	9.703759	71.234154	19.780411	-2.351789	-4.659946	-30.503468	-52.701622	-38.389706	-98.054565	-34.648594	-70.493530	-2.327887	-5.241085	0.745682	-12.194030	-12.584593	2.947881	-86.677483	-7.616782	-31.419662	2.856104	-0.615653	-18.055389	-19.973307	13.553370	16.053801	-2.476096	7.896914	-23.736675	26.693089	-7.984139	-14.190764	
-2.005848	100.620039	-2.169516	-3.711896	8.763877	51.291641	8.257057	-27.208897	13.474401	3.241421	19.179764	1.544735	-12.115408	8.705580	-9.385855	0.	0.	0.	-21.038040	-24.359722	-18.561733	0.369243	23.711733	-4.718027	7.467492	-1.706271	-6.910553	0.	0.	0.	-6.316339	-9.429195	-51.615147	-32.101395	8.967410	74.165192	21.261768	-2.199869	-4.818583	-33.578003	-53.958492	-41.594959	-98.261101	-34.838394	-71.377228	-2.171547	-5.193425	0.480312	-11.246504	-12.713499	4.062801	-83.434471	-1.180713	-23.560303	-3.003990	-4.073356	-26.771675	-12.989368	7.976003	6.254840	-1.945191	5.969709	-23.387150	25.869289	-9.092407	-16.134981	
-2.143944	100.653845	-2.138876	-3.616718	9.274446	52.027145	7.342682	-27.958078	12.842539	3.629376	19.461710	1.330453	-12.478501	9.553201	-9.625915	0.	0.	0.	-21.964634	-24.497522	-19.950499	0.276304	24.173700	-4.228803	7.378113	-2.017836	-6.906518	0.	0.	0.	-6.904637	-9.584189	-52.399315	-31.893061	8.466542	76.138855	22.045631	-1.387066	-5.627504	-37.356403	-54.116501	-43.934921	-97.327629	-33.982765	-72.113243	-1.734783	-5.051712	-0.168767	-11.742974	-10.409235	1.783441	-86.399925	1.921472	-26.058008	3.646580	-16.420614	-27.100601	-10.765645	4.775587	5.757868	-0.671590	4.919724	-24.516973	25.685106	-10.444405	-14.765351	
-2.143944	100.653845	-2.138876	-3.616718	9.274446	52.027145	7.342682	-27.958078	12.842539	3.629376	19.461710	1.330453	-12.478501	9.553201	-9.625915	0.	0.	0.	-21.964634	-24.497522	-19.950499	0.276304	24.173700	-4.228803	7.378113	-2.017836	-6.906518	0.	0.	0.	-6.904637	-9.584189	-52.399315	-31.893061	8.466542	76.138855	22.045631	-1.387066	-5.627504	-37.356403	-54.116501	-43.934921	-97.327629	-33.982765	-72.113243	-1.734783	-5.051712	-0.168767	-11.742974	-10.409235	1.783441	-86.399925	1.921472	-26.058008	3.646580	-16.420614	-27.100601	-10.765645	4.775587	5.757868	-0.671590	4.919724	-24.516973	25.685106	-10.444405	-14.765351	
-1.982998	100.525791	-1.616023	-3.986377	9.565932	54.049301	7.619773	-29.060751	13.626825	3.493084	20.519310	1.740495	-12.239531	9.378345	-13.123880	0.	0.	0.	-22.955786	-24.389130	-21.036472	1.116410	25.691710	-3.972062	7.102416	-3.426986	-8.409743	0.	0.	0.	-7.260712	-9.805454	-54.432571	-32.176193	10.422246	75.446899	20.396818	-3.295613	-6.331311	-33.703480	-54.553703	-38.166866	-99.367973	-32.289173	-71.767555	-2.512542	-4.490779	0.219356	-12.898298	-10.819977	-1.183335	-83.296402	2.226952	-30.539900	10.209393	-40.756626	-6.256265	-8.698653	5.364675	10.153041	-4.343686	7.365382	-22.424015	27.344625	-10.907728	-14.648808	
-1.990139	100.072572	-1.624177	-4.160594	9.016571	54.561035	8.761897	-29.861462	15.976215	4.014190	21.955841	-0.337983	-12.058585	8.471081	-13.929812	0.	0.	0.	-23.123711	-24.916525	-20.194773	2.263152	27.708082	-5.294702	6.971052	-4.469550	-8.747139	0.	0.	0.	-6.792379	-9.566751	-54.897026	-32.199169	11.169564	74.634712	19.920835	-4.220937	-5.935102	-31.799442	-53.461842	-37.559902	-100.611961	-33.514378	-72.581207	-2.683139	-4.365466	0.423144	-13.828972	-11.277133	-1.629667	-77.863419	4.430341	-31.083813	16.424543	-54.322891	3.333805	-8.101614	5.092097	8.325992	-2.859518	6.834612	-21.351658	23.032536	-9.236689	-14.177722	
-2.153757	99.534911	-1.697496	-4.215153	8.429685	54.898884	9.170049	-29.938318	16.270842	4.324326	22.888380	-0.933146	-11.780382	7.289180	-14.111853	0.	0.	0.	-23.331783	-25.609297	-19.076740	3.696587	29.890650	-7.114984	6.761744	-5.569814	-8.859839	0.	0.	0.	-6.330712	-9.236166	-55.194744	-32.023243	10.989093	74.306969	19.982149	-4.240498	-6.244758	-31.311872	-52.918869	-39.400375	-100.712776	-35.734173	-73.542519	-2.218017	-4.455352	0.268475	-13.967210	-10.547581	-1.901504	-71.213646	7.563775	-29.672695	23.917326	-70.323265	10.599687	-8.119603	6.784283	9.122369	-2.873617	7.860799	-22.173052	24.297850	-9.632981	-14.970827	
-2.153757	99.534911	-1.697496	-4.215153	8.429685	54.898884	9.170049	-29.938318	16.270842	4.324326	22.888380	-0.933146	-11.780382	7.289180	-14.111853	0.	0.	0.	-23.331783	-25.609297	-19.076740	3.696587	29.890650	-7.114984	6.761744	-5.569814	-8.859839	0.	0.	0.	-6.330712	-9.236166	-55.194744	-32.023243	10.989093	74.306969	19.982149	-4.240498	-6.244758	-31.311872	-52.918869	-39.400375	-100.712776	-35.734173	-73.542519	-2.218017	-4.455352	0.268475	-13.967210	-10.547581	-1.901504	-71.213646	7.563775	-29.672695	23.917326	-70.323265	10.599687	-8.119603	6.784283	9.122369	-2.873617	7.860799	-22.173052	24.297850	-9.632981	-14.970827	
